<?xml version="1.0" encoding="utf-8"?>
<!-- Generator: Adobe Illustrator 16.0.0, SVG Export Plug-In . SVG Version: 6.00 Build 0)  -->
<!DOCTYPE svg PUBLIC "-//W3C//DTD SVG 1.1//EN" "http://www.w3.org/Graphics/SVG/1.1/DTD/svg11.dtd">
<svg version="1.1" id="Layer_1" xmlns="http://www.w3.org/2000/svg" xmlns:xlink="http://www.w3.org/1999/xlink" x="0px" y="0px"
	 width="190px" height="256px" viewBox="0 0 256 256" enable-background="new 0 0 256 256" xml:space="preserve">
<g>
	<g>
		<path fill="none" d="M1,257.968C1,172.312,1,86.656,1,1c85.656,0,171.312,0,256.968,0c0,85.656,0,171.312,0,256.968
			C172.312,257.968,86.656,257.968,1,257.968z M56.281,204.752c48.74,0,97.137,0,145.756,0c0-3.024,0-5.745,0-9.061
			c-3.394,0-6.453,0-10.122,0c0-13.473,0-26.355,0-40.608c-22.686,6.327-39.692-6.266-57.702-15.216
			c-3.136-1.559-5.534-1.793-8.724-0.102c-9.41,4.988-18.97,9.709-28.604,14.252c-2.594,1.224-5.642,1.907-8.517,2.031
			c-6.744,0.29-13.51,0.093-20.701,0.093c0,13.565,0,26.338,0,39.671c-4.017,0-7.586,0-11.386,0
			C56.281,198.985,56.281,201.599,56.281,204.752z M76.153,151.301c5.229-1.434,9.995-2.068,14.15-4.009
			c12.064-5.632,23.928-11.7,35.765-17.804c2.665-1.375,4.71-1.349,7.359,0.012c12.438,6.387,24.906,12.735,37.556,18.686
			c3.347,1.574,7.38,1.686,11.436,2.54c0-7.57,0-13.82,0-20.286c-2.705-0.223-5.124-0.421-7.507-0.616
			c-0.231-2.281-0.43-4.233-0.646-6.38c-1.81-0.218-3.394-0.407-4.764-0.572c-1.676-7.049-3.099-13.871-4.946-20.577
			c-1.948-7.071-6.373-12.454-12.798-15.933c-3.631-1.966-7.554-3.244-8.378-8.149c-0.179-1.064-1.597-2.321-2.726-2.75
			c-3.335-1.268-3.752-3.713-3.524-6.763c0.174-2.32,0.513-4.799-0.104-6.955c-0.56-1.952-2.121-4.87-3.575-5.082
			c-4.612-0.673-4.478-3.479-4.32-6.786c0.116-2.433,0.023-4.876,0.023-6.509c6.938-1.062,13.174-2.017,19.785-3.028
			c0-2.584-0.001-5.227,0-7.869c0.003-7.499-1.389-8.629-8.44-6.217c-4.503,1.54-8.812,2.77-13.388-1.735
			c0,9.675,0.058,18.303-0.055,26.928c-0.019,1.491-0.432,4.042-1.222,4.285c-4.981,1.534-4.868,5.293-4.704,9.248
			c0.189,4.578,0.894,9.276-4.734,11.656c-1.114,0.471-1.491,2.5-2.417,3.64c-1.261,1.553-2.456,3.521-4.145,4.302
			c-8.76,4.053-14.441,10.542-16.674,19.932c-1.428,6.004-2.666,12.054-4.019,18.22c-1.626,0.295-3.339,0.605-4.957,0.899
			c-0.225,2.311-0.414,4.244-0.613,6.283c-2.582,0.156-4.856,0.294-7.417,0.449C76.153,136.89,76.153,143.142,76.153,151.301z
			 M221.915,228.234c-61.907,0-123.564,0-185.456,0c0,3.045,0,5.779,0,8.8c61.927,0,123.574,0,185.456,0
			C221.915,233.956,221.915,231.215,221.915,228.234z M44.539,220.829c56.583,0,112.882,0,169.231,0c0-3.087,0-5.815,0-8.506
			c-56.629,0-112.918,0-169.231,0C44.539,215.369,44.539,217.969,44.539,220.829z"/>
		<path fill-rule="evenodd" clip-rule="evenodd" d="M56.281,204.752c0-3.153,0-5.767,0-8.939c3.799,0,7.369,0,11.386,0
			c0-13.333,0-26.105,0-39.671c7.191,0,13.957,0.197,20.701-0.093c2.875-0.124,5.922-0.808,8.517-2.031
			c9.634-4.543,19.194-9.264,28.604-14.252c3.19-1.691,5.588-1.457,8.724,0.102c18.01,8.95,35.017,21.543,57.702,15.216
			c0,14.253,0,27.136,0,40.608c3.669,0,6.729,0,10.122,0c0,3.315,0,6.036,0,9.061C153.418,204.752,105.021,204.752,56.281,204.752z
			 M101.539,168.162c0,9.289,0,18.289,0,27.351c2.255,0,4.154,0,6.213,0c0-9.322,0-18.329,0-27.351
			C105.523,168.162,103.614,168.162,101.539,168.162z M150.612,168.051c0,9.467,0,18.375,0,27.485c2.209,0,4.104,0,6.173,0
			c0-9.339,0-18.383,0-27.485C154.623,168.051,152.82,168.051,150.612,168.051z M120.25,195.581c0-9.281,0-18.317,0-27.266
			c-2.078,0-3.788,0-5.389,0c0,9.35,0,18.259,0,27.266C116.826,195.581,118.428,195.581,120.25,195.581z M132.831,168.245
			c-2.161,0-3.866,0-5.58,0c0,9.283,0,18.201,0,27.194c2.017,0,3.718,0,5.58,0C132.831,186.265,132.831,177.477,132.831,168.245z
			 M144.979,195.664c0-9.458,0-18.47,0-27.514c-2.156,0-3.908,0-5.773,0c0,9.302,0,18.327,0,27.514
			C141.198,195.664,142.818,195.664,144.979,195.664z M165.348,168.063c0,9.487,0,18.399,0,27.36c2.04,0,3.736,0,5.437,0
			c0-9.328,0-18.256,0-27.36C168.877,168.063,167.267,168.063,165.348,168.063z M177.312,168.135c0,9.455,0,18.484,0,27.779
			c2.033-0.159,3.615-0.282,5.282-0.413c0-9.306,0-18.21,0-27.366C180.729,168.135,179.126,168.135,177.312,168.135z
			 M76.036,195.419c1.977,0,3.652,0,5.397,0c0-9.297,0-18.188,0-27.159c-1.994,0-3.69,0-5.397,0
			C76.036,177.533,76.036,186.427,76.036,195.419z M90.195,168.117c0,9.544,0,18.554,0,27.821c2.035-0.189,3.601-0.335,5.23-0.487
			c0-9.339,0-18.222,0-27.334C93.547,168.117,91.958,168.117,90.195,168.117z"/>
		<path fill-rule="evenodd" clip-rule="evenodd" d="M76.153,151.301c0-8.159,0-14.411,0-20.94c2.561-0.155,4.835-0.293,7.417-0.449
			c0.199-2.04,0.388-3.973,0.613-6.283c1.618-0.294,3.331-0.604,4.957-0.899c1.354-6.166,2.591-12.216,4.019-18.22
			c2.233-9.39,7.914-15.879,16.674-19.932c1.689-0.781,2.883-2.75,4.145-4.302c0.926-1.14,1.304-3.169,2.417-3.64
			c5.627-2.379,4.923-7.078,4.734-11.656c-0.164-3.955-0.277-7.714,4.704-9.248c0.79-0.243,1.203-2.794,1.222-4.285
			c0.113-8.625,0.055-17.253,0.055-26.928c4.577,4.505,8.885,3.275,13.388,1.735c7.052-2.412,8.443-1.282,8.44,6.217
			c-0.001,2.642,0,5.285,0,7.869c-6.611,1.011-12.847,1.965-19.785,3.028c0,1.632,0.093,4.076-0.023,6.509
			c-0.157,3.307-0.292,6.113,4.32,6.786c1.454,0.212,3.016,3.13,3.575,5.082c0.617,2.156,0.278,4.635,0.104,6.955
			c-0.228,3.05,0.189,5.496,3.524,6.763c1.129,0.429,2.547,1.686,2.726,2.75c0.824,4.906,4.747,6.184,8.378,8.149
			c6.425,3.479,10.85,8.862,12.798,15.933c1.848,6.706,3.271,13.528,4.946,20.577c1.37,0.165,2.954,0.354,4.764,0.572
			c0.217,2.146,0.415,4.099,0.646,6.38c2.383,0.195,4.802,0.394,7.507,0.616c0,6.466,0,12.716,0,20.286
			c-4.056-0.854-8.089-0.966-11.436-2.54c-12.649-5.95-25.117-12.299-37.556-18.686c-2.649-1.36-4.694-1.387-7.359-0.012
			c-11.836,6.104-23.701,12.172-35.765,17.804C86.148,149.232,81.383,149.867,76.153,151.301z"/>
		<path fill-rule="evenodd" clip-rule="evenodd" d="M221.915,228.234c0,2.98,0,5.722,0,8.8c-61.882,0-123.529,0-185.456,0
			c0-3.021,0-5.755,0-8.8C98.351,228.234,160.008,228.234,221.915,228.234z"/>
		<path fill-rule="evenodd" clip-rule="evenodd" d="M44.539,220.829c0-2.86,0-5.46,0-8.506c56.313,0,112.603,0,169.231,0
			c0,2.69,0,5.419,0,8.506C157.421,220.829,101.123,220.829,44.539,220.829z"/>
		<path fill-rule="evenodd" clip-rule="evenodd" fill="none" d="M101.539,168.162c2.075,0,3.984,0,6.213,0
			c0,9.021,0,18.028,0,27.351c-2.059,0-3.958,0-6.213,0C101.539,186.451,101.539,177.451,101.539,168.162z"/>
		<path fill-rule="evenodd" clip-rule="evenodd" fill="none" d="M150.612,168.051c2.208,0,4.011,0,6.173,0
			c0,9.103,0,18.146,0,27.485c-2.068,0-3.964,0-6.173,0C150.612,186.426,150.612,177.518,150.612,168.051z"/>
		<path fill-rule="evenodd" clip-rule="evenodd" fill="none" d="M120.25,195.581c-1.822,0-3.424,0-5.389,0
			c0-9.007,0-17.916,0-27.266c1.601,0,3.312,0,5.389,0C120.25,177.264,120.25,186.3,120.25,195.581z"/>
		<path fill-rule="evenodd" clip-rule="evenodd" fill="none" d="M132.831,168.245c0,9.231,0,18.02,0,27.194c-1.861,0-3.562,0-5.58,0
			c0-8.993,0-17.911,0-27.194C128.965,168.245,130.67,168.245,132.831,168.245z"/>
		<path fill-rule="evenodd" clip-rule="evenodd" fill="none" d="M144.979,195.664c-2.161,0-3.781,0-5.773,0
			c0-9.187,0-18.212,0-27.514c1.865,0,3.617,0,5.773,0C144.979,177.194,144.979,186.206,144.979,195.664z"/>
		<path fill-rule="evenodd" clip-rule="evenodd" fill="none" d="M165.348,168.063c1.919,0,3.529,0,5.437,0c0,9.104,0,18.032,0,27.36
			c-1.7,0-3.396,0-5.437,0C165.348,186.463,165.348,177.551,165.348,168.063z"/>
		<path fill-rule="evenodd" clip-rule="evenodd" fill="none" d="M177.312,168.135c1.814,0,3.417,0,5.282,0
			c0,9.156,0,18.061,0,27.366c-1.667,0.131-3.249,0.254-5.282,0.413C177.312,186.619,177.312,177.59,177.312,168.135z"/>
		<path fill-rule="evenodd" clip-rule="evenodd" fill="none" d="M76.036,195.419c0-8.992,0-17.886,0-27.159c1.707,0,3.403,0,5.397,0
			c0,8.972,0,17.862,0,27.159C79.688,195.419,78.013,195.419,76.036,195.419z"/>
		<path fill-rule="evenodd" clip-rule="evenodd" fill="none" d="M90.195,168.117c1.762,0,3.352,0,5.23,0c0,9.112,0,17.995,0,27.334
			c-1.629,0.152-3.195,0.298-5.23,0.487C90.195,186.671,90.195,177.661,90.195,168.117z"/>
	</g>
</g>
</svg>
